<svg xmlns="http://www.w3.org/2000/svg" xmlns:xlink="http://www.w3.org/1999/xlink" width="500" zoomAndPan="magnify" viewBox="0 0 375 149.999998" height="200" preserveAspectRatio="xMidYMid meet" version="1.0"><defs><g/><clipPath id="562fedf608"><path d="M 0 0 L 375 0 L 375 3.75 L 0 3.75 Z M 0 0 " clip-rule="nonzero"/></clipPath><clipPath id="6d8642ad90"><path d="M 0 146.988281 L 373.453125 146.988281 L 373.453125 150 L 0 150 Z M 0 146.988281 " clip-rule="nonzero"/></clipPath><clipPath id="16a429ad4f"><path d="M 0 1.875 L 3.75 1.875 L 3.75 150 L 0 150 Z M 0 1.875 " clip-rule="nonzero"/></clipPath><clipPath id="338b5485de"><path d="M 371.152344 3.046875 L 375 3.046875 L 375 150 L 371.152344 150 Z M 371.152344 3.046875 " clip-rule="nonzero"/></clipPath><clipPath id="1adeba3c52"><path d="M 45.738281 25.292969 L 245.203125 25.292969 L 245.203125 56.578125 L 45.738281 56.578125 Z M 45.738281 25.292969 " clip-rule="nonzero"/></clipPath><clipPath id="9cb64d3830"><path d="M 57.503906 25.292969 L 245.203125 25.292969 L 233.4375 56.578125 L 45.738281 56.578125 Z M 57.503906 25.292969 " clip-rule="nonzero"/></clipPath><clipPath id="1ff27a99b1"><path d="M 124.085938 91.195312 L 323.554688 91.195312 L 323.554688 122.480469 L 124.085938 122.480469 Z M 124.085938 91.195312 " clip-rule="nonzero"/></clipPath><clipPath id="6ebdc498bd"><path d="M 135.855469 91.195312 L 323.554688 91.195312 L 311.785156 122.480469 L 124.085938 122.480469 Z M 135.855469 91.195312 " clip-rule="nonzero"/></clipPath></defs><rect x="-37.5" width="450" fill="#ffffff" y="-15" height="179.999997" fill-opacity="1"/><rect x="-37.5" width="450" fill="#ffffff" y="-15" height="179.999997" fill-opacity="1"/><g clip-path="url(#562fedf608)"><path fill="#ffffff" d="M 0 0 L 375 0 L 375 3.75 L 0 3.75 Z M 0 0 " fill-opacity="1" fill-rule="nonzero"/></g><g clip-path="url(#6d8642ad90)"><path fill="#ffffff" d="M 0 146.988281 L 373.453125 146.988281 L 373.453125 150.75 L 0 150.75 Z M 0 146.988281 " fill-opacity="1" fill-rule="nonzero"/></g><g clip-path="url(#16a429ad4f)"><path fill="#ffffff" d="M 0 150.75 L 0 1.875 L 3.75 1.875 L 3.75 150.75 Z M 0 150.75 " fill-opacity="1" fill-rule="nonzero"/></g><g clip-path="url(#338b5485de)"><path fill="#ffffff" d="M 371.152344 150.746094 L 371.152344 3.046875 L 375.746094 3.046875 L 375.746094 150.746094 Z M 371.152344 150.746094 " fill-opacity="1" fill-rule="nonzero"/></g><g clip-path="url(#1adeba3c52)"><g clip-path="url(#9cb64d3830)"><path fill="#c1272d" d="M 45.738281 25.292969 L 245.203125 25.292969 L 245.203125 56.578125 L 45.738281 56.578125 Z M 45.738281 25.292969 " fill-opacity="1" fill-rule="nonzero"/></g></g><g clip-path="url(#1ff27a99b1)"><g clip-path="url(#6ebdc498bd)"><path fill="#004b75" d="M 124.085938 91.195312 L 323.554688 91.195312 L 323.554688 122.480469 L 124.085938 122.480469 Z M 124.085938 91.195312 " fill-opacity="1" fill-rule="nonzero"/></g></g><g fill="#ffffff" fill-opacity="0.4"><g transform="translate(63.155771, 51.680672)"><g><path d="M 18.152344 0 L 17.222656 -10.207031 C 18.207031 -10.671875 19.078125 -11.277344 19.832031 -12.089844 C 20.585938 -12.902344 21.109375 -13.917969 21.457031 -15.195312 C 21.746094 -16.324219 21.773438 -17.28125 21.542969 -18.0625 C 21.3125 -18.816406 20.875 -19.457031 20.238281 -19.917969 C 19.601562 -20.382812 18.816406 -20.730469 17.859375 -20.933594 C 16.902344 -21.136719 15.859375 -21.253906 14.730469 -21.253906 L 7.132812 -21.253906 L 1.449219 0 L 7.507812 0 L 9.945312 -9.105469 L 11.480469 -9.105469 L 12.0625 0 Z M 10.757812 -12.148438 L 12.382812 -18.207031 C 13.019531 -18.207031 13.539062 -18.121094 14.003906 -17.949219 C 14.441406 -17.773438 14.789062 -17.542969 15.019531 -17.253906 C 15.25 -16.960938 15.425781 -16.644531 15.484375 -16.296875 C 15.542969 -15.917969 15.542969 -15.542969 15.453125 -15.164062 C 15.339844 -14.757812 15.164062 -14.382812 14.902344 -14.035156 C 14.640625 -13.6875 14.324219 -13.367188 13.917969 -13.078125 C 13.511719 -12.785156 13.019531 -12.582031 12.496094 -12.410156 C 11.976562 -12.234375 11.394531 -12.148438 10.757812 -12.148438 Z M 10.757812 -12.148438 "/></g></g></g><g fill="#ffffff" fill-opacity="0.4"><g transform="translate(82.174637, 51.680672)"><g><path d="M 16.324219 -4.550781 L 8.726562 -4.550781 L 9.742188 -8.351562 L 15.832031 -8.351562 L 17.050781 -12.902344 L 10.960938 -12.902344 L 11.976562 -16.699219 L 18.816406 -16.699219 L 19.28125 -21.253906 L 7.132812 -21.253906 C 7.015625 -20.875 6.871094 -20.324219 6.667969 -19.570312 C 6.464844 -18.816406 6.234375 -17.976562 5.972656 -16.992188 C 5.710938 -16.003906 5.421875 -14.960938 5.132812 -13.800781 C 4.8125 -12.640625 4.496094 -11.480469 4.203125 -10.320312 C 3.886719 -9.164062 3.566406 -8.003906 3.277344 -6.902344 C 2.988281 -5.769531 2.695312 -4.726562 2.464844 -3.796875 C 2.203125 -2.871094 2 -2.058594 1.828125 -1.390625 C 1.652344 -0.726562 1.507812 -0.261719 1.449219 0 L 14.351562 0 Z M 16.324219 -4.550781 "/></g></g></g><g fill="#ffffff" fill-opacity="0.4"><g transform="translate(98.729167, 51.680672)"><g><path d="M 12.613281 -6.058594 L 12.730469 0 L 18.789062 0 L 18.410156 -21.253906 L 12.324219 -21.253906 L 0.578125 0 L 5.132812 0 L 8.496094 -6.058594 Z M 12.554688 -9.105469 L 10.175781 -9.105469 L 12.46875 -13.28125 Z M 12.554688 -9.105469 "/></g></g></g><g fill="#ffffff" fill-opacity="0.4"><g transform="translate(118.095945, 51.680672)"><g><path d="M 14.351562 0 L 14.816406 -4.550781 L 8.726562 -4.550781 L 13.191406 -21.253906 L 7.132812 -21.253906 C 7.105469 -21.167969 7.015625 -20.820312 6.84375 -20.179688 C 6.667969 -19.542969 6.464844 -18.757812 6.203125 -17.773438 C 5.914062 -16.789062 5.625 -15.65625 5.304688 -14.410156 C 4.957031 -13.164062 4.640625 -11.886719 4.292969 -10.613281 C 3.941406 -9.308594 3.59375 -8.03125 3.277344 -6.8125 C 2.929688 -5.566406 2.636719 -4.464844 2.378906 -3.480469 C 2.085938 -2.492188 1.882812 -1.683594 1.710938 -1.042969 C 1.535156 -0.40625 1.449219 -0.0585938 1.449219 0 Z M 14.351562 0 "/></g></g></g><g fill="#ffffff" fill-opacity="0.4"><g transform="translate(133.026914, 51.680672)"><g/></g></g><g fill="#ffffff" fill-opacity="0.4"><g transform="translate(141.724572, 51.680672)"><g><path d="M 7.132812 -21.253906 L 1.449219 0 L 6.003906 0 L 9.394531 -12.757812 L 12.84375 0 L 19.660156 0 L 25.339844 -21.253906 L 20.789062 -21.253906 L 17.367188 -8.496094 L 13.976562 -21.253906 Z M 7.132812 -21.253906 "/></g></g></g><g fill="#ffffff" fill-opacity="0.4"><g transform="translate(162.830875, 51.680672)"><g><path d="M 16.324219 -4.550781 L 8.726562 -4.550781 L 9.742188 -8.351562 L 15.832031 -8.351562 L 17.050781 -12.902344 L 10.960938 -12.902344 L 11.976562 -16.699219 L 18.816406 -16.699219 L 19.28125 -21.253906 L 7.132812 -21.253906 C 7.015625 -20.875 6.871094 -20.324219 6.667969 -19.570312 C 6.464844 -18.816406 6.234375 -17.976562 5.972656 -16.992188 C 5.710938 -16.003906 5.421875 -14.960938 5.132812 -13.800781 C 4.8125 -12.640625 4.496094 -11.480469 4.203125 -10.320312 C 3.886719 -9.164062 3.566406 -8.003906 3.277344 -6.902344 C 2.988281 -5.769531 2.695312 -4.726562 2.464844 -3.796875 C 2.203125 -2.871094 2 -2.058594 1.828125 -1.390625 C 1.652344 -0.726562 1.507812 -0.261719 1.449219 0 L 14.351562 0 Z M 16.324219 -4.550781 "/></g></g></g><g fill="#ffffff" fill-opacity="0.4"><g transform="translate(179.385405, 51.680672)"><g><path d="M 38.128906 -21.253906 L 33.578125 -21.253906 L 26.242188 -7.972656 L 26.007812 -21.253906 L 19.917969 -21.253906 L 12.554688 -7.972656 L 12.324219 -21.253906 L 6.261719 -21.253906 L 6.640625 0 L 12.730469 0 L 20.066406 -13.28125 L 20.324219 0 L 26.386719 0 Z M 38.128906 -21.253906 "/></g></g></g><g fill="#ffffff" fill-opacity="0.4"><g transform="translate(212.40749, 51.680672)"><g><path d="M 12.699219 -4.550781 C 12.582031 -4.144531 12.324219 -3.796875 11.859375 -3.507812 C 11.394531 -3.1875 10.785156 -3.042969 10.03125 -3.042969 C 9.394531 -3.042969 8.816406 -3.160156 8.292969 -3.449219 C 7.769531 -3.710938 7.335938 -4.03125 6.929688 -4.4375 C 6.523438 -4.84375 6.203125 -5.277344 5.914062 -5.742188 C 5.625 -6.203125 5.421875 -6.667969 5.25 -7.074219 L 2.085938 -4.550781 C 3.015625 -2.871094 4.117188 -1.683594 5.394531 -1.015625 C 6.667969 -0.320312 8.175781 0 9.972656 0 C 11.308594 0 12.496094 -0.203125 13.570312 -0.609375 C 14.613281 -1.015625 15.542969 -1.535156 16.324219 -2.175781 C 17.105469 -2.785156 17.746094 -3.449219 18.238281 -4.144531 C 18.703125 -4.84375 19.019531 -5.480469 19.195312 -6.058594 C 19.484375 -7.191406 19.484375 -8.175781 19.195312 -9.015625 C 18.90625 -9.859375 18.441406 -10.582031 17.804688 -11.222656 C 17.164062 -11.859375 16.46875 -12.410156 15.6875 -12.902344 C 14.875 -13.367188 14.148438 -13.832031 13.484375 -14.238281 C 12.785156 -14.640625 12.234375 -15.019531 11.828125 -15.425781 C 11.394531 -15.800781 11.25 -16.238281 11.394531 -16.699219 C 11.480469 -17.078125 11.773438 -17.425781 12.234375 -17.746094 C 12.699219 -18.035156 13.335938 -18.207031 14.089844 -18.207031 C 14.730469 -18.207031 15.28125 -18.0625 15.800781 -17.804688 C 16.324219 -17.511719 16.757812 -17.195312 17.164062 -16.789062 C 17.570312 -16.382812 17.890625 -15.945312 18.179688 -15.484375 C 18.46875 -15.019531 18.703125 -14.585938 18.875 -14.179688 L 22.035156 -16.699219 C 21.078125 -18.355469 19.976562 -19.511719 18.703125 -20.210938 C 17.425781 -20.90625 15.917969 -21.253906 14.148438 -21.253906 C 12.816406 -21.253906 11.597656 -21.019531 10.554688 -20.617188 C 9.480469 -20.210938 8.554688 -19.6875 7.769531 -19.078125 C 6.988281 -18.441406 6.351562 -17.773438 5.886719 -17.078125 C 5.394531 -16.382812 5.074219 -15.746094 4.929688 -15.195312 C 4.609375 -14.035156 4.609375 -13.046875 4.898438 -12.207031 C 5.191406 -11.367188 5.652344 -10.640625 6.292969 -10.003906 C 6.902344 -9.367188 7.597656 -8.816406 8.410156 -8.351562 C 9.191406 -7.859375 9.917969 -7.421875 10.613281 -7.015625 C 11.277344 -6.609375 11.828125 -6.203125 12.265625 -5.828125 C 12.671875 -5.421875 12.816406 -5.015625 12.699219 -4.550781 Z M 12.699219 -4.550781 "/></g></g></g><g fill="#ffffff" fill-opacity="1"><g transform="translate(61.617839, 50.142741)"><g><path d="M 18.152344 0 L 17.222656 -10.207031 C 18.207031 -10.671875 19.078125 -11.277344 19.832031 -12.089844 C 20.585938 -12.902344 21.109375 -13.917969 21.457031 -15.195312 C 21.746094 -16.324219 21.773438 -17.28125 21.542969 -18.0625 C 21.3125 -18.816406 20.875 -19.457031 20.238281 -19.917969 C 19.601562 -20.382812 18.816406 -20.730469 17.859375 -20.933594 C 16.902344 -21.136719 15.859375 -21.253906 14.730469 -21.253906 L 7.132812 -21.253906 L 1.449219 0 L 7.507812 0 L 9.945312 -9.105469 L 11.480469 -9.105469 L 12.0625 0 Z M 10.757812 -12.148438 L 12.382812 -18.207031 C 13.019531 -18.207031 13.539062 -18.121094 14.003906 -17.949219 C 14.441406 -17.773438 14.789062 -17.542969 15.019531 -17.253906 C 15.25 -16.960938 15.425781 -16.644531 15.484375 -16.296875 C 15.542969 -15.917969 15.542969 -15.542969 15.453125 -15.164062 C 15.339844 -14.757812 15.164062 -14.382812 14.902344 -14.035156 C 14.640625 -13.6875 14.324219 -13.367188 13.917969 -13.078125 C 13.511719 -12.785156 13.019531 -12.582031 12.496094 -12.410156 C 11.976562 -12.234375 11.394531 -12.148438 10.757812 -12.148438 Z M 10.757812 -12.148438 "/></g></g></g><g fill="#ffffff" fill-opacity="1"><g transform="translate(80.636705, 50.142741)"><g><path d="M 16.324219 -4.550781 L 8.726562 -4.550781 L 9.742188 -8.351562 L 15.832031 -8.351562 L 17.050781 -12.902344 L 10.960938 -12.902344 L 11.976562 -16.699219 L 18.816406 -16.699219 L 19.28125 -21.253906 L 7.132812 -21.253906 C 7.015625 -20.875 6.871094 -20.324219 6.667969 -19.570312 C 6.464844 -18.816406 6.234375 -17.976562 5.972656 -16.992188 C 5.710938 -16.003906 5.421875 -14.960938 5.132812 -13.800781 C 4.8125 -12.640625 4.496094 -11.480469 4.203125 -10.320312 C 3.886719 -9.164062 3.566406 -8.003906 3.277344 -6.902344 C 2.988281 -5.769531 2.695312 -4.726562 2.464844 -3.796875 C 2.203125 -2.871094 2 -2.058594 1.828125 -1.390625 C 1.652344 -0.726562 1.507812 -0.261719 1.449219 0 L 14.351562 0 Z M 16.324219 -4.550781 "/></g></g></g><g fill="#ffffff" fill-opacity="1"><g transform="translate(97.191236, 50.142741)"><g><path d="M 12.613281 -6.058594 L 12.730469 0 L 18.789062 0 L 18.410156 -21.253906 L 12.324219 -21.253906 L 0.578125 0 L 5.132812 0 L 8.496094 -6.058594 Z M 12.554688 -9.105469 L 10.175781 -9.105469 L 12.46875 -13.28125 Z M 12.554688 -9.105469 "/></g></g></g><g fill="#ffffff" fill-opacity="1"><g transform="translate(116.558013, 50.142741)"><g><path d="M 14.351562 0 L 14.816406 -4.550781 L 8.726562 -4.550781 L 13.191406 -21.253906 L 7.132812 -21.253906 C 7.105469 -21.167969 7.015625 -20.820312 6.84375 -20.179688 C 6.667969 -19.542969 6.464844 -18.757812 6.203125 -17.773438 C 5.914062 -16.789062 5.625 -15.65625 5.304688 -14.410156 C 4.957031 -13.164062 4.640625 -11.886719 4.292969 -10.613281 C 3.941406 -9.308594 3.59375 -8.03125 3.277344 -6.8125 C 2.929688 -5.566406 2.636719 -4.464844 2.378906 -3.480469 C 2.085938 -2.492188 1.882812 -1.683594 1.710938 -1.042969 C 1.535156 -0.40625 1.449219 -0.0585938 1.449219 0 Z M 14.351562 0 "/></g></g></g><g fill="#ffffff" fill-opacity="1"><g transform="translate(131.488982, 50.142741)"><g/></g></g><g fill="#ffffff" fill-opacity="1"><g transform="translate(140.18664, 50.142741)"><g><path d="M 7.132812 -21.253906 L 1.449219 0 L 6.003906 0 L 9.394531 -12.757812 L 12.84375 0 L 19.660156 0 L 25.339844 -21.253906 L 20.789062 -21.253906 L 17.367188 -8.496094 L 13.976562 -21.253906 Z M 7.132812 -21.253906 "/></g></g></g><g fill="#ffffff" fill-opacity="1"><g transform="translate(161.292943, 50.142741)"><g><path d="M 16.324219 -4.550781 L 8.726562 -4.550781 L 9.742188 -8.351562 L 15.832031 -8.351562 L 17.050781 -12.902344 L 10.960938 -12.902344 L 11.976562 -16.699219 L 18.816406 -16.699219 L 19.28125 -21.253906 L 7.132812 -21.253906 C 7.015625 -20.875 6.871094 -20.324219 6.667969 -19.570312 C 6.464844 -18.816406 6.234375 -17.976562 5.972656 -16.992188 C 5.710938 -16.003906 5.421875 -14.960938 5.132812 -13.800781 C 4.8125 -12.640625 4.496094 -11.480469 4.203125 -10.320312 C 3.886719 -9.164062 3.566406 -8.003906 3.277344 -6.902344 C 2.988281 -5.769531 2.695312 -4.726562 2.464844 -3.796875 C 2.203125 -2.871094 2 -2.058594 1.828125 -1.390625 C 1.652344 -0.726562 1.507812 -0.261719 1.449219 0 L 14.351562 0 Z M 16.324219 -4.550781 "/></g></g></g><g fill="#ffffff" fill-opacity="1"><g transform="translate(177.847473, 50.142741)"><g><path d="M 38.128906 -21.253906 L 33.578125 -21.253906 L 26.242188 -7.972656 L 26.007812 -21.253906 L 19.917969 -21.253906 L 12.554688 -7.972656 L 12.324219 -21.253906 L 6.261719 -21.253906 L 6.640625 0 L 12.730469 0 L 20.066406 -13.28125 L 20.324219 0 L 26.386719 0 Z M 38.128906 -21.253906 "/></g></g></g><g fill="#ffffff" fill-opacity="1"><g transform="translate(210.869558, 50.142741)"><g><path d="M 12.699219 -4.550781 C 12.582031 -4.144531 12.324219 -3.796875 11.859375 -3.507812 C 11.394531 -3.1875 10.785156 -3.042969 10.03125 -3.042969 C 9.394531 -3.042969 8.816406 -3.160156 8.292969 -3.449219 C 7.769531 -3.710938 7.335938 -4.03125 6.929688 -4.4375 C 6.523438 -4.84375 6.203125 -5.277344 5.914062 -5.742188 C 5.625 -6.203125 5.421875 -6.667969 5.25 -7.074219 L 2.085938 -4.550781 C 3.015625 -2.871094 4.117188 -1.683594 5.394531 -1.015625 C 6.667969 -0.320312 8.175781 0 9.972656 0 C 11.308594 0 12.496094 -0.203125 13.570312 -0.609375 C 14.613281 -1.015625 15.542969 -1.535156 16.324219 -2.175781 C 17.105469 -2.785156 17.746094 -3.449219 18.238281 -4.144531 C 18.703125 -4.84375 19.019531 -5.480469 19.195312 -6.058594 C 19.484375 -7.191406 19.484375 -8.175781 19.195312 -9.015625 C 18.90625 -9.859375 18.441406 -10.582031 17.804688 -11.222656 C 17.164062 -11.859375 16.46875 -12.410156 15.6875 -12.902344 C 14.875 -13.367188 14.148438 -13.832031 13.484375 -14.238281 C 12.785156 -14.640625 12.234375 -15.019531 11.828125 -15.425781 C 11.394531 -15.800781 11.25 -16.238281 11.394531 -16.699219 C 11.480469 -17.078125 11.773438 -17.425781 12.234375 -17.746094 C 12.699219 -18.035156 13.335938 -18.207031 14.089844 -18.207031 C 14.730469 -18.207031 15.28125 -18.0625 15.800781 -17.804688 C 16.324219 -17.511719 16.757812 -17.195312 17.164062 -16.789062 C 17.570312 -16.382812 17.890625 -15.945312 18.179688 -15.484375 C 18.46875 -15.019531 18.703125 -14.585938 18.875 -14.179688 L 22.035156 -16.699219 C 21.078125 -18.355469 19.976562 -19.511719 18.703125 -20.210938 C 17.425781 -20.90625 15.917969 -21.253906 14.148438 -21.253906 C 12.816406 -21.253906 11.597656 -21.019531 10.554688 -20.617188 C 9.480469 -20.210938 8.554688 -19.6875 7.769531 -19.078125 C 6.988281 -18.441406 6.351562 -17.773438 5.886719 -17.078125 C 5.394531 -16.382812 5.074219 -15.746094 4.929688 -15.195312 C 4.609375 -14.035156 4.609375 -13.046875 4.898438 -12.207031 C 5.191406 -11.367188 5.652344 -10.640625 6.292969 -10.003906 C 6.902344 -9.367188 7.597656 -8.816406 8.410156 -8.351562 C 9.191406 -7.859375 9.917969 -7.421875 10.613281 -7.015625 C 11.277344 -6.609375 11.828125 -6.203125 12.265625 -5.828125 C 12.671875 -5.421875 12.816406 -5.015625 12.699219 -4.550781 Z M 12.699219 -4.550781 "/></g></g></g><g fill="#ffffff" fill-opacity="0.4"><g transform="translate(141.823955, 118.334292)"><g><path d="M 10.960938 -12.902344 L 11.976562 -16.699219 L 18.816406 -16.699219 L 19.28125 -21.253906 L 7.132812 -21.253906 L 1.449219 0 L 7.507812 0 L 10.148438 -9.859375 L 16.238281 -9.859375 L 17.050781 -12.902344 Z M 10.960938 -12.902344 "/></g></g></g><g fill="#ffffff" fill-opacity="0.4"><g transform="translate(157.044848, 118.334292)"><g><path d="M 12.613281 -6.058594 L 12.730469 0 L 18.789062 0 L 18.410156 -21.253906 L 12.324219 -21.253906 L 0.578125 0 L 5.132812 0 L 8.496094 -6.058594 Z M 12.554688 -9.105469 L 10.175781 -9.105469 L 12.46875 -13.28125 Z M 12.554688 -9.105469 "/></g></g></g><g fill="#ffffff" fill-opacity="0.4"><g transform="translate(176.411626, 118.334292)"><g><path d="M 9.769531 -8.4375 L 10.554688 0 L 16.644531 0 L 15.195312 -14.324219 L 21.542969 -21.253906 L 16.992188 -21.253906 L 11.628906 -15.425781 L 13.191406 -21.253906 L 7.132812 -21.253906 L 1.449219 0 L 7.507812 0 L 9.742188 -8.410156 Z M 9.769531 -8.4375 "/></g></g></g><g fill="#ffffff" fill-opacity="0.4"><g transform="translate(194.502742, 118.334292)"><g><path d="M 16.324219 -4.550781 L 8.726562 -4.550781 L 9.742188 -8.351562 L 15.832031 -8.351562 L 17.050781 -12.902344 L 10.960938 -12.902344 L 11.976562 -16.699219 L 18.816406 -16.699219 L 19.28125 -21.253906 L 7.132812 -21.253906 C 7.015625 -20.875 6.871094 -20.324219 6.667969 -19.570312 C 6.464844 -18.816406 6.234375 -17.976562 5.972656 -16.992188 C 5.710938 -16.003906 5.421875 -14.960938 5.132812 -13.800781 C 4.8125 -12.640625 4.496094 -11.480469 4.203125 -10.320312 C 3.886719 -9.164062 3.566406 -8.003906 3.277344 -6.902344 C 2.988281 -5.769531 2.695312 -4.726562 2.464844 -3.796875 C 2.203125 -2.871094 2 -2.058594 1.828125 -1.390625 C 1.652344 -0.726562 1.507812 -0.261719 1.449219 0 L 14.351562 0 Z M 16.324219 -4.550781 "/></g></g></g><g fill="#ffffff" fill-opacity="0.4"><g transform="translate(211.057272, 118.334292)"><g/></g></g><g fill="#ffffff" fill-opacity="0.4"><g transform="translate(219.75493, 118.334292)"><g><path d="M 7.132812 -21.253906 L 1.449219 0 L 6.003906 0 L 9.394531 -12.757812 L 12.84375 0 L 19.660156 0 L 25.339844 -21.253906 L 20.789062 -21.253906 L 17.367188 -8.496094 L 13.976562 -21.253906 Z M 7.132812 -21.253906 "/></g></g></g><g fill="#ffffff" fill-opacity="0.4"><g transform="translate(240.861233, 118.334292)"><g><path d="M 16.324219 -4.550781 L 8.726562 -4.550781 L 9.742188 -8.351562 L 15.832031 -8.351562 L 17.050781 -12.902344 L 10.960938 -12.902344 L 11.976562 -16.699219 L 18.816406 -16.699219 L 19.28125 -21.253906 L 7.132812 -21.253906 C 7.015625 -20.875 6.871094 -20.324219 6.667969 -19.570312 C 6.464844 -18.816406 6.234375 -17.976562 5.972656 -16.992188 C 5.710938 -16.003906 5.421875 -14.960938 5.132812 -13.800781 C 4.8125 -12.640625 4.496094 -11.480469 4.203125 -10.320312 C 3.886719 -9.164062 3.566406 -8.003906 3.277344 -6.902344 C 2.988281 -5.769531 2.695312 -4.726562 2.464844 -3.796875 C 2.203125 -2.871094 2 -2.058594 1.828125 -1.390625 C 1.652344 -0.726562 1.507812 -0.261719 1.449219 0 L 14.351562 0 Z M 16.324219 -4.550781 "/></g></g></g><g fill="#ffffff" fill-opacity="0.4"><g transform="translate(257.415764, 118.334292)"><g><path d="M 38.128906 -21.253906 L 33.578125 -21.253906 L 26.242188 -7.972656 L 26.007812 -21.253906 L 19.917969 -21.253906 L 12.554688 -7.972656 L 12.324219 -21.253906 L 6.261719 -21.253906 L 6.640625 0 L 12.730469 0 L 20.066406 -13.28125 L 20.324219 0 L 26.386719 0 Z M 38.128906 -21.253906 "/></g></g></g><g fill="#ffffff" fill-opacity="0.4"><g transform="translate(290.437848, 118.334292)"><g><path d="M 12.699219 -4.550781 C 12.582031 -4.144531 12.324219 -3.796875 11.859375 -3.507812 C 11.394531 -3.1875 10.785156 -3.042969 10.03125 -3.042969 C 9.394531 -3.042969 8.816406 -3.160156 8.292969 -3.449219 C 7.769531 -3.710938 7.335938 -4.03125 6.929688 -4.4375 C 6.523438 -4.84375 6.203125 -5.277344 5.914062 -5.742188 C 5.625 -6.203125 5.421875 -6.667969 5.25 -7.074219 L 2.085938 -4.550781 C 3.015625 -2.871094 4.117188 -1.683594 5.394531 -1.015625 C 6.667969 -0.320312 8.175781 0 9.972656 0 C 11.308594 0 12.496094 -0.203125 13.570312 -0.609375 C 14.613281 -1.015625 15.542969 -1.535156 16.324219 -2.175781 C 17.105469 -2.785156 17.746094 -3.449219 18.238281 -4.144531 C 18.703125 -4.84375 19.019531 -5.480469 19.195312 -6.058594 C 19.484375 -7.191406 19.484375 -8.175781 19.195312 -9.015625 C 18.90625 -9.859375 18.441406 -10.582031 17.804688 -11.222656 C 17.164062 -11.859375 16.46875 -12.410156 15.6875 -12.902344 C 14.875 -13.367188 14.148438 -13.832031 13.484375 -14.238281 C 12.785156 -14.640625 12.234375 -15.019531 11.828125 -15.425781 C 11.394531 -15.800781 11.25 -16.238281 11.394531 -16.699219 C 11.480469 -17.078125 11.773438 -17.425781 12.234375 -17.746094 C 12.699219 -18.035156 13.335938 -18.207031 14.089844 -18.207031 C 14.730469 -18.207031 15.28125 -18.0625 15.800781 -17.804688 C 16.324219 -17.511719 16.757812 -17.195312 17.164062 -16.789062 C 17.570312 -16.382812 17.890625 -15.945312 18.179688 -15.484375 C 18.46875 -15.019531 18.703125 -14.585938 18.875 -14.179688 L 22.035156 -16.699219 C 21.078125 -18.355469 19.976562 -19.511719 18.703125 -20.210938 C 17.425781 -20.90625 15.917969 -21.253906 14.148438 -21.253906 C 12.816406 -21.253906 11.597656 -21.019531 10.554688 -20.617188 C 9.480469 -20.210938 8.554688 -19.6875 7.769531 -19.078125 C 6.988281 -18.441406 6.351562 -17.773438 5.886719 -17.078125 C 5.394531 -16.382812 5.074219 -15.746094 4.929688 -15.195312 C 4.609375 -14.035156 4.609375 -13.046875 4.898438 -12.207031 C 5.191406 -11.367188 5.652344 -10.640625 6.292969 -10.003906 C 6.902344 -9.367188 7.597656 -8.816406 8.410156 -8.351562 C 9.191406 -7.859375 9.917969 -7.421875 10.613281 -7.015625 C 11.277344 -6.609375 11.828125 -6.203125 12.265625 -5.828125 C 12.671875 -5.421875 12.816406 -5.015625 12.699219 -4.550781 Z M 12.699219 -4.550781 "/></g></g></g><g fill="#ffffff" fill-opacity="1"><g transform="translate(140.28603, 116.79636)"><g><path d="M 10.960938 -12.902344 L 11.976562 -16.699219 L 18.816406 -16.699219 L 19.28125 -21.253906 L 7.132812 -21.253906 L 1.449219 0 L 7.507812 0 L 10.148438 -9.859375 L 16.238281 -9.859375 L 17.050781 -12.902344 Z M 10.960938 -12.902344 "/></g></g></g><g fill="#ffffff" fill-opacity="1"><g transform="translate(155.506923, 116.79636)"><g><path d="M 12.613281 -6.058594 L 12.730469 0 L 18.789062 0 L 18.410156 -21.253906 L 12.324219 -21.253906 L 0.578125 0 L 5.132812 0 L 8.496094 -6.058594 Z M 12.554688 -9.105469 L 10.175781 -9.105469 L 12.46875 -13.28125 Z M 12.554688 -9.105469 "/></g></g></g><g fill="#ffffff" fill-opacity="1"><g transform="translate(174.873701, 116.79636)"><g><path d="M 9.769531 -8.4375 L 10.554688 0 L 16.644531 0 L 15.195312 -14.324219 L 21.542969 -21.253906 L 16.992188 -21.253906 L 11.628906 -15.425781 L 13.191406 -21.253906 L 7.132812 -21.253906 L 1.449219 0 L 7.507812 0 L 9.742188 -8.410156 Z M 9.769531 -8.4375 "/></g></g></g><g fill="#ffffff" fill-opacity="1"><g transform="translate(192.964818, 116.79636)"><g><path d="M 16.324219 -4.550781 L 8.726562 -4.550781 L 9.742188 -8.351562 L 15.832031 -8.351562 L 17.050781 -12.902344 L 10.960938 -12.902344 L 11.976562 -16.699219 L 18.816406 -16.699219 L 19.28125 -21.253906 L 7.132812 -21.253906 C 7.015625 -20.875 6.871094 -20.324219 6.667969 -19.570312 C 6.464844 -18.816406 6.234375 -17.976562 5.972656 -16.992188 C 5.710938 -16.003906 5.421875 -14.960938 5.132812 -13.800781 C 4.8125 -12.640625 4.496094 -11.480469 4.203125 -10.320312 C 3.886719 -9.164062 3.566406 -8.003906 3.277344 -6.902344 C 2.988281 -5.769531 2.695312 -4.726562 2.464844 -3.796875 C 2.203125 -2.871094 2 -2.058594 1.828125 -1.390625 C 1.652344 -0.726562 1.507812 -0.261719 1.449219 0 L 14.351562 0 Z M 16.324219 -4.550781 "/></g></g></g><g fill="#ffffff" fill-opacity="1"><g transform="translate(209.519348, 116.79636)"><g/></g></g><g fill="#ffffff" fill-opacity="1"><g transform="translate(218.217006, 116.79636)"><g><path d="M 7.132812 -21.253906 L 1.449219 0 L 6.003906 0 L 9.394531 -12.757812 L 12.84375 0 L 19.660156 0 L 25.339844 -21.253906 L 20.789062 -21.253906 L 17.367188 -8.496094 L 13.976562 -21.253906 Z M 7.132812 -21.253906 "/></g></g></g><g fill="#ffffff" fill-opacity="1"><g transform="translate(239.323309, 116.79636)"><g><path d="M 16.324219 -4.550781 L 8.726562 -4.550781 L 9.742188 -8.351562 L 15.832031 -8.351562 L 17.050781 -12.902344 L 10.960938 -12.902344 L 11.976562 -16.699219 L 18.816406 -16.699219 L 19.28125 -21.253906 L 7.132812 -21.253906 C 7.015625 -20.875 6.871094 -20.324219 6.667969 -19.570312 C 6.464844 -18.816406 6.234375 -17.976562 5.972656 -16.992188 C 5.710938 -16.003906 5.421875 -14.960938 5.132812 -13.800781 C 4.8125 -12.640625 4.496094 -11.480469 4.203125 -10.320312 C 3.886719 -9.164062 3.566406 -8.003906 3.277344 -6.902344 C 2.988281 -5.769531 2.695312 -4.726562 2.464844 -3.796875 C 2.203125 -2.871094 2 -2.058594 1.828125 -1.390625 C 1.652344 -0.726562 1.507812 -0.261719 1.449219 0 L 14.351562 0 Z M 16.324219 -4.550781 "/></g></g></g><g fill="#ffffff" fill-opacity="1"><g transform="translate(255.877839, 116.79636)"><g><path d="M 38.128906 -21.253906 L 33.578125 -21.253906 L 26.242188 -7.972656 L 26.007812 -21.253906 L 19.917969 -21.253906 L 12.554688 -7.972656 L 12.324219 -21.253906 L 6.261719 -21.253906 L 6.640625 0 L 12.730469 0 L 20.066406 -13.28125 L 20.324219 0 L 26.386719 0 Z M 38.128906 -21.253906 "/></g></g></g><g fill="#ffffff" fill-opacity="1"><g transform="translate(288.899924, 116.79636)"><g><path d="M 12.699219 -4.550781 C 12.582031 -4.144531 12.324219 -3.796875 11.859375 -3.507812 C 11.394531 -3.1875 10.785156 -3.042969 10.03125 -3.042969 C 9.394531 -3.042969 8.816406 -3.160156 8.292969 -3.449219 C 7.769531 -3.710938 7.335938 -4.03125 6.929688 -4.4375 C 6.523438 -4.84375 6.203125 -5.277344 5.914062 -5.742188 C 5.625 -6.203125 5.421875 -6.667969 5.25 -7.074219 L 2.085938 -4.550781 C 3.015625 -2.871094 4.117188 -1.683594 5.394531 -1.015625 C 6.667969 -0.320312 8.175781 0 9.972656 0 C 11.308594 0 12.496094 -0.203125 13.570312 -0.609375 C 14.613281 -1.015625 15.542969 -1.535156 16.324219 -2.175781 C 17.105469 -2.785156 17.746094 -3.449219 18.238281 -4.144531 C 18.703125 -4.84375 19.019531 -5.480469 19.195312 -6.058594 C 19.484375 -7.191406 19.484375 -8.175781 19.195312 -9.015625 C 18.90625 -9.859375 18.441406 -10.582031 17.804688 -11.222656 C 17.164062 -11.859375 16.46875 -12.410156 15.6875 -12.902344 C 14.875 -13.367188 14.148438 -13.832031 13.484375 -14.238281 C 12.785156 -14.640625 12.234375 -15.019531 11.828125 -15.425781 C 11.394531 -15.800781 11.25 -16.238281 11.394531 -16.699219 C 11.480469 -17.078125 11.773438 -17.425781 12.234375 -17.746094 C 12.699219 -18.035156 13.335938 -18.207031 14.089844 -18.207031 C 14.730469 -18.207031 15.28125 -18.0625 15.800781 -17.804688 C 16.324219 -17.511719 16.757812 -17.195312 17.164062 -16.789062 C 17.570312 -16.382812 17.890625 -15.945312 18.179688 -15.484375 C 18.46875 -15.019531 18.703125 -14.585938 18.875 -14.179688 L 22.035156 -16.699219 C 21.078125 -18.355469 19.976562 -19.511719 18.703125 -20.210938 C 17.425781 -20.90625 15.917969 -21.253906 14.148438 -21.253906 C 12.816406 -21.253906 11.597656 -21.019531 10.554688 -20.617188 C 9.480469 -20.210938 8.554688 -19.6875 7.769531 -19.078125 C 6.988281 -18.441406 6.351562 -17.773438 5.886719 -17.078125 C 5.394531 -16.382812 5.074219 -15.746094 4.929688 -15.195312 C 4.609375 -14.035156 4.609375 -13.046875 4.898438 -12.207031 C 5.191406 -11.367188 5.652344 -10.640625 6.292969 -10.003906 C 6.902344 -9.367188 7.597656 -8.816406 8.410156 -8.351562 C 9.191406 -7.859375 9.917969 -7.421875 10.613281 -7.015625 C 11.277344 -6.609375 11.828125 -6.203125 12.265625 -5.828125 C 12.671875 -5.421875 12.816406 -5.015625 12.699219 -4.550781 Z M 12.699219 -4.550781 "/></g></g></g><g fill="#ffffff" fill-opacity="1"><g transform="translate(174.439604, 84.568448)"><g><path d="M 14.234375 -0.640625 C 12.273438 0.859375 10.289062 1.609375 8.28125 1.609375 C 6.164062 1.609375 4.625 0.828125 3.65625 -0.734375 C 2.96875 -1.890625 2.625 -3.164062 2.625 -4.5625 C 2.625 -5.96875 2.878906 -7.367188 3.390625 -8.765625 C 2.148438 -9.585938 1.46875 -10.695312 1.34375 -12.09375 C 1.3125 -12.363281 1.296875 -12.628906 1.296875 -12.890625 C 1.296875 -15.003906 2.203125 -16.773438 4.015625 -18.203125 C 5.960938 -19.722656 8.257812 -20.484375 10.90625 -20.484375 C 13.550781 -20.484375 15.742188 -19.742188 17.484375 -18.265625 C 19.222656 -16.796875 20.09375 -14.695312 20.09375 -11.96875 C 20.09375 -11.789062 20.09375 -11.613281 20.09375 -11.4375 C 21.851562 -12.601562 23 -13.710938 23.53125 -14.765625 C 23.613281 -14.960938 23.726562 -15.046875 23.875 -15.015625 C 24.019531 -14.992188 24.09375 -14.9375 24.09375 -14.84375 C 24.09375 -14.757812 24.035156 -14.640625 23.921875 -14.484375 C 22.878906 -12.835938 21.566406 -11.515625 19.984375 -10.515625 C 19.910156 -9.679688 19.679688 -8.679688 19.296875 -7.515625 C 18.921875 -6.347656 18.285156 -5.140625 17.390625 -3.890625 C 16.492188 -2.648438 15.441406 -1.566406 14.234375 -0.640625 Z M 18.53125 -11.984375 C 18.53125 -14.972656 17.578125 -17.179688 15.671875 -18.609375 C 14.398438 -19.554688 12.914062 -20.03125 11.21875 -20.03125 C 10.726562 -20.03125 10.226562 -19.988281 9.71875 -19.90625 C 7.5625 -19.582031 5.804688 -18.691406 4.453125 -17.234375 C 3.296875 -15.960938 2.71875 -14.523438 2.71875 -12.921875 C 2.71875 -11.523438 3.097656 -10.5 3.859375 -9.84375 C 4.546875 -11.3125 5.5625 -12.796875 6.90625 -14.296875 C 8.375 -15.929688 9.921875 -16.9375 11.546875 -17.3125 C 11.804688 -17.363281 12.144531 -17.390625 12.5625 -17.390625 C 12.976562 -17.390625 13.457031 -17.222656 14 -16.890625 C 14.125 -16.816406 14.191406 -16.742188 14.203125 -16.671875 C 14.210938 -16.597656 14.171875 -16.546875 14.078125 -16.515625 C 13.992188 -16.484375 13.863281 -16.5 13.6875 -16.5625 C 13.507812 -16.625 13.210938 -16.65625 12.796875 -16.65625 C 12.378906 -16.65625 11.78125 -16.441406 11 -16.015625 C 10.226562 -15.585938 9.445312 -14.925781 8.65625 -14.03125 C 7.082031 -12.25 5.9375 -10.554688 5.21875 -8.953125 C 6.320312 -8.429688 7.65625 -8.171875 9.21875 -8.171875 C 9.90625 -8.171875 10.632812 -8.21875 11.40625 -8.3125 C 13.925781 -8.644531 16.28125 -9.40625 18.46875 -10.59375 C 18.507812 -11.0625 18.53125 -11.523438 18.53125 -11.984375 Z M 18.3125 -9.65625 C 15.363281 -8.09375 12.257812 -7.3125 9 -7.3125 C 7.414062 -7.3125 6.019531 -7.546875 4.8125 -8.015625 C 4.269531 -6.585938 4 -5.351562 4 -4.3125 C 4 -1.875 4.726562 -0.296875 6.1875 0.421875 C 6.988281 0.796875 7.78125 0.984375 8.5625 0.984375 C 9.34375 0.984375 10.109375 0.8125 10.859375 0.46875 C 12.410156 -0.226562 13.800781 -1.328125 15.03125 -2.828125 C 16.269531 -4.328125 17.207031 -5.976562 17.84375 -7.78125 C 18.082031 -8.488281 18.238281 -9.113281 18.3125 -9.65625 Z M 18.3125 -9.65625 "/></g></g></g><g fill="#ffffff" fill-opacity="1"><g transform="translate(193.656241, 84.568448)"><g><path d="M 5.09375 -10.609375 C 5.09375 -9.816406 4.585938 -9.066406 3.578125 -8.359375 C 3.929688 -8.347656 4.398438 -8.34375 4.984375 -8.34375 C 5.578125 -8.34375 6.328125 -8.382812 7.234375 -8.46875 C 7.265625 -8.414062 7.28125 -8.273438 7.28125 -8.046875 C 7.28125 -7.816406 7.175781 -7.476562 6.96875 -7.03125 C 6.757812 -6.582031 6.566406 -6.191406 6.390625 -5.859375 C 6.222656 -5.535156 6.066406 -5.226562 5.921875 -4.9375 C 5.773438 -4.644531 5.609375 -4.285156 5.421875 -3.859375 C 5.234375 -3.441406 5.078125 -3.054688 4.953125 -2.703125 C 4.515625 -1.359375 4.585938 -0.6875 5.171875 -0.6875 C 5.910156 -0.6875 7.003906 -2.160156 8.453125 -5.109375 C 8.578125 -5.335938 8.675781 -5.425781 8.75 -5.375 C 8.832031 -5.320312 8.875 -5.253906 8.875 -5.171875 C 8.875 -5.097656 8.757812 -4.828125 8.53125 -4.359375 C 8.300781 -3.890625 8.050781 -3.40625 7.78125 -2.90625 C 7.519531 -2.414062 7.109375 -1.84375 6.546875 -1.1875 C 5.867188 -0.375 5.222656 0.03125 4.609375 0.03125 C 3.921875 0.03125 3.445312 -0.382812 3.1875 -1.21875 C 3.132812 -1.375 3.109375 -1.609375 3.109375 -1.921875 C 3.109375 -2.242188 3.207031 -2.671875 3.40625 -3.203125 C 3.601562 -3.734375 3.921875 -4.375 4.359375 -5.125 C 4.804688 -5.882812 5.054688 -6.332031 5.109375 -6.46875 C 5.160156 -6.601562 5.1875 -6.734375 5.1875 -6.859375 C 5.1875 -7.398438 4.484375 -7.691406 3.078125 -7.734375 L 2.75 -6.875 C 1.644531 -3.96875 0.582031 -2.019531 -0.4375 -1.03125 C -0.613281 -0.875 -0.703125 -0.925781 -0.703125 -1.1875 C -0.703125 -1.238281 -0.6875 -1.300781 -0.65625 -1.375 C 0.332031 -2.675781 1.1875 -4.21875 1.90625 -6 C 2.632812 -7.789062 3.140625 -9.488281 3.421875 -11.09375 C 3.523438 -11.632812 3.769531 -11.90625 4.15625 -11.90625 C 4.550781 -11.90625 4.832031 -11.660156 5 -11.171875 C 5.0625 -11.015625 5.09375 -10.828125 5.09375 -10.609375 Z M 5.09375 -10.609375 "/></g></g></g></svg>