<svg xmlns="http://www.w3.org/2000/svg" xmlns:xlink="http://www.w3.org/1999/xlink" width="440" zoomAndPan="magnify" viewBox="0 0 330 149.999998" height="200" preserveAspectRatio="xMidYMid meet" version="1.0"><defs><g/><clipPath id="3c914238de"><path d="M 140.191406 15 L 189.691406 15 L 189.691406 66 L 140.191406 66 Z M 140.191406 15 " clip-rule="nonzero"/></clipPath></defs><rect x="-33" width="396" fill="#ffffff" y="-15" height="179.999997" fill-opacity="1"/><rect x="-33" width="396" fill="#000000" y="-15" height="179.999997" fill-opacity="1"/><g fill="#ffffff" fill-opacity="1"><g transform="translate(37.935872, 106.060833)"><g><path d="M 3.96875 -35.453125 L 3.96875 0 L 22.3125 0 L 22.3125 -7.089844 L 11.058594 -7.089844 L 11.058594 -35.453125 Z M 3.96875 -35.453125 "/></g></g></g><g fill="#ffffff" fill-opacity="1"><g transform="translate(59.900018, 106.060833)"><g><path d="M 29.402344 -12.347656 L 29.402344 -35.453125 L 22.363281 -35.453125 L 22.363281 -12.394531 C 22.363281 -4.957031 10.859375 -4.957031 10.859375 -12.394531 L 10.859375 -35.453125 L 3.769531 -35.453125 L 3.769531 -12.347656 C 3.769531 4.511719 29.402344 4.511719 29.402344 -12.347656 Z M 29.402344 -12.347656 "/></g></g></g><g fill="#ffffff" fill-opacity="1"><g transform="translate(90.689679, 106.060833)"><g><path d="M 26.527344 -27.222656 L 27.371094 -34.511719 C 25.238281 -35.453125 22.859375 -35.898438 20.378906 -35.898438 C -3.621094 -35.898438 -3.667969 0.0976562 20.378906 0.0976562 C 22.859375 0.0976562 25.984375 -0.496094 28.164062 -1.386719 L 27.222656 -8.726562 C 25.882812 -8.03125 23.453125 -7.140625 20.378906 -7.140625 C 6.347656 -7.140625 6.347656 -28.757812 20.378906 -28.757812 C 23.453125 -28.757812 25.1875 -27.917969 26.527344 -27.222656 Z M 26.527344 -27.222656 "/></g></g></g><g fill="#ffffff" fill-opacity="1"><g transform="translate(118.058208, 106.060833)"><g><path d="M 3.96875 0 L 11.058594 0 L 11.058594 -13.882812 L 20.480469 0 L 29.253906 0 L 16.761719 -17.949219 L 28.261719 -35.453125 L 19.984375 -35.453125 L 11.058594 -21.320312 L 11.058594 -35.453125 L 3.96875 -35.453125 Z M 3.96875 0 "/></g></g></g><g fill="#ffffff" fill-opacity="1"><g transform="translate(145.52591, 106.060833)"><g><path d="M 12.644531 0 L 19.683594 0 L 19.683594 -15.964844 L 32.082031 -35.453125 L 23.402344 -35.453125 L 16.164062 -23.253906 L 8.925781 -35.453125 L 0.296875 -35.453125 L 12.644531 -15.964844 Z M 12.644531 0 "/></g></g></g><g fill="#ffffff" fill-opacity="1"><g transform="translate(175.224776, 106.060833)"><g/></g></g><g fill="#ff3131" fill-opacity="1"><g transform="translate(186.833395, 106.060833)"><g><path d="M 14.976562 0.742188 L 16.5625 0.742188 L 31.238281 -35.453125 L 23.058594 -35.453125 L 18.296875 -23.402344 L 15.769531 -16.3125 L 13.191406 -23.652344 L 8.480469 -35.453125 L 0.296875 -35.453125 Z M 14.976562 0.742188 "/></g></g></g><g fill="#ff3131" fill-opacity="1"><g transform="translate(215.937291, 106.060833)"><g><path d="M 0.792969 0 L 8.824219 0 L 10.214844 -3.816406 L 21.964844 -3.816406 L 23.402344 0 L 31.386719 0 L 16.460938 -36.742188 L 15.71875 -36.742188 Z M 12.792969 -10.460938 L 16.113281 -19.683594 L 19.339844 -10.460938 Z M 12.792969 -10.460938 "/></g></g></g><g fill="#ff3131" fill-opacity="1"><g transform="translate(245.834493, 106.060833)"><g><path d="M 11.058594 0 L 11.058594 -13.535156 L 17.898438 -13.535156 C 31.636719 -13.535156 31.683594 -35.402344 17.898438 -35.402344 L 3.96875 -35.402344 L 3.96875 0 Z M 11.058594 -20.429688 L 11.058594 -28.363281 L 17.304688 -28.363281 C 22.066406 -28.363281 22.066406 -20.429688 17.304688 -20.429688 Z M 11.058594 -20.429688 "/></g></g></g><g fill="#ff3131" fill-opacity="1"><g transform="translate(273.252607, 106.060833)"><g><path d="M 22.3125 0 L 22.3125 -7.089844 L 11.058594 -7.089844 L 11.058594 -14.179688 L 20.378906 -14.179688 L 20.378906 -21.273438 L 11.058594 -21.273438 L 11.058594 -28.363281 L 21.71875 -28.363281 L 21.71875 -35.453125 L 3.96875 -35.453125 L 3.96875 0 Z M 22.3125 0 "/></g></g></g><g clip-path="url(#3c914238de)"><path fill="#c52628" d="M 163.425781 53.785156 C 163.324219 55.789062 162.914062 63.871094 162.914062 63.871094 C 162.851562 65.027344 163.78125 66 164.941406 66 C 166.101562 66 167.023438 65.03125 166.972656 63.871094 C 166.972656 63.871094 166.5625 55.789062 166.460938 53.785156 C 166.460938 53.785156 167.558594 53.785156 167.558594 53.785156 C 167.558594 53.785156 175.496094 55.054688 175.496094 55.054688 L 174.234375 49.230469 C 176.351562 48.34375 188.070312 43.4375 188.070312 43.4375 L 188.53125 43.246094 L 185.9375 39.144531 C 185.9375 39.144531 189.671875 31.78125 189.671875 31.78125 L 181.550781 31.996094 C 180.933594 31.207031 178.382812 27.925781 178.382812 27.925781 L 178.058594 27.507812 L 171.4375 35.414062 C 171.4375 35.414062 174.363281 21.246094 174.363281 21.246094 L 169.054688 21.246094 C 168.386719 20.230469 165.296875 15.539062 165.296875 15.539062 L 164.941406 15 L 160.824219 21.246094 C 160.824219 21.246094 155.515625 21.246094 155.515625 21.246094 L 158.441406 35.414062 L 151.820312 27.507812 L 148.332031 31.996094 C 148.332031 31.996094 140.207031 31.78125 140.207031 31.78125 L 143.9375 39.144531 C 143.433594 39.941406 141.613281 42.820312 141.613281 42.820312 L 141.34375 43.246094 L 155.644531 49.230469 C 155.378906 50.445312 154.515625 54.449219 154.515625 54.449219 L 154.382812 55.054688 L 162.320312 53.785156 Z M 174.980469 32.507812 L 174.980469 47.996094 L 173.253906 48.71875 L 174.402344 54.019531 C 174.402344 54.019531 167.628906 52.9375 167.628906 52.9375 L 165.5625 52.9375 L 166.121094 63.910156 C 166.152344 64.585938 165.617188 65.152344 164.941406 65.152344 C 164.269531 65.152344 163.726562 64.585938 163.761719 63.914062 L 164.320312 52.9375 L 162.25 52.9375 L 155.480469 54.019531 C 155.480469 54.019531 156.625 48.71875 156.625 48.71875 L 154.898438 47.996094 L 154.898438 32.507812 L 158.871094 37.253906 L 159.617188 36.894531 C 159.617188 36.894531 157.109375 24.753906 156.5625 22.09375 C 156.5625 22.09375 161.285156 22.09375 161.285156 22.09375 L 164.941406 16.546875 C 165.902344 18.003906 168.46875 21.902344 168.46875 21.902344 L 168.59375 22.09375 L 173.316406 22.09375 C 173.316406 22.09375 170.261719 36.894531 170.261719 36.894531 L 171.007812 37.253906 Z M 174.980469 32.507812 " fill-opacity="1" fill-rule="evenodd"/></g><path fill="#ffffff" d="M 154.898438 31.847656 L 154.898438 48.457031 L 156.132812 48.976562 L 154.929688 54.539062 L 162.285156 53.359375 L 163.871094 53.359375 L 163.339844 63.890625 C 163.289062 64.808594 164.023438 65.574219 164.941406 65.574219 C 165.859375 65.574219 166.585938 64.808594 166.546875 63.890625 L 166.011719 53.359375 L 167.59375 53.359375 L 174.949219 54.539062 L 173.746094 48.976562 L 174.980469 48.457031 L 174.980469 31.847656 L 170.679688 36.980469 L 173.839844 21.671875 L 168.824219 21.671875 L 164.941406 15.773438 L 161.054688 21.671875 L 156.039062 21.671875 L 159.199219 36.980469 Z M 154.898438 31.847656 " fill-opacity="1" fill-rule="evenodd"/><path fill="#c52628" d="M 164.625 45.660156 L 164.46875 48.75 C 164.457031 49.019531 164.671875 49.246094 164.941406 49.246094 C 165.210938 49.246094 165.421875 49.019531 165.410156 48.75 L 165.253906 45.660156 L 165.71875 45.660156 L 167.878906 46.003906 L 167.527344 44.371094 L 171.683594 42.628906 L 170.964844 41.488281 L 171.996094 39.453125 L 169.757812 39.511719 L 168.789062 38.265625 L 166.625 40.847656 L 167.554688 36.351562 L 166.082031 36.351562 L 164.941406 34.621094 L 163.796875 36.351562 L 162.324219 36.351562 L 163.253906 40.847656 L 161.089844 38.265625 L 160.121094 39.511719 L 157.882812 39.453125 L 158.914062 41.488281 L 158.195312 42.628906 L 162.351562 44.371094 L 162 46.003906 L 164.160156 45.660156 Z M 164.625 45.660156 " fill-opacity="1" fill-rule="nonzero"/></svg>